grf
version=1
nRows=6
nColumns=37
inDegrees=no
endheader
time	ground_force_1_vx	ground_force_1_vy	ground_force_1_vz	ground_force_1_px	ground_force_1_py	ground_force_1_pz	ground_moment_1_mx	ground_moment_1_my	ground_moment_1_mz	ground_force_2_vx	ground_force_2_vy	ground_force_2_vz	ground_force_2_px	ground_force_2_py	ground_force_2_pz	ground_moment_2_mx	ground_moment_2_my	ground_moment_2_mz	ground_force_3_vx	ground_force_3_vy	ground_force_3_vz	ground_force_3_px	ground_force_3_py	ground_force_3_pz	ground_moment_3_mx	ground_moment_3_my	ground_moment_3_mz	ground_force_4_vx	ground_force_4_vy	ground_force_4_vz	ground_force_4_px	ground_force_4_py	ground_force_4_pz	ground_moment_4_mx	ground_moment_4_my	ground_moment_4_mz
      4.89000000	      0.00000000	     -0.00000000	      0.00000000	      0.00000000	      0.00000000	      0.00000000	      0.00000000	      0.00000000	      0.00000000	      0.71368408	     57.63607788	   -341.00964355	   -256.21653730	  -1140.80373582	      0.00000000	      0.00000000	      0.00000000	   2596.02033384	      8.06312372	    -65.11210668	   -373.66741943	   -267.74511489	   -684.64051612	      0.00000000	      0.00000000	     -0.00000000	  -4720.39652184	      0.00000000	     -0.00000000	      0.00000000	      0.00000000	      0.00000000	      0.00000000	      0.00000000	      0.00000000	      0.00000000
      4.90000000	      0.00000000	     -0.00000000	      0.00000000	      0.00000000	      0.00000000	      0.00000000	      0.00000000	      0.00000000	      0.00000000	     -0.75281000	     55.29016876	   -328.37988281	   -254.70447956	  -1143.64085933	      0.00000000	      0.00000000	      0.00000000	   2430.59718692	      6.74201682	    -64.72050506	   -363.93035889	   -268.76090338	   -684.45252378	      0.00000000	      0.00000000	     -0.00000000	  -4501.22577626	      0.00000000	     -0.00000000	      0.00000000	      0.00000000	      0.00000000	      0.00000000	      0.00000000	      0.00000000	      0.00000000
      4.91000000	      0.00000000	     -0.00000000	      0.00000000	      0.00000000	      0.00000000	      0.00000000	      0.00000000	      0.00000000	      0.00000000	     -2.64652729	     53.03259277	   -310.05331421	   -253.29787564	  -1141.29682612	      0.00000000	      0.00000000	      0.00000000	   2158.57256523	      5.39168746	    -63.88595605	   -354.00103760	   -268.81360582	   -684.70451293	      0.00000000	      0.00000000	     -0.00000000	  -4367.88936536	      0.00000000	     -0.00000000	      0.00000000	      0.00000000	      0.00000000	      0.00000000	      0.00000000	      0.00000000	      0.00000000
      4.92000000	      0.00000000	     -0.00000000	      0.00000000	      0.00000000	      0.00000000	      0.00000000	      0.00000000	      0.00000000	      0.00000000	     -3.31085896	     50.13153076	   -295.84518433	   -253.43575509	  -1144.52107078	      0.00000000	      0.00000000	      0.00000000	   2153.64011960	      4.50429978	    -62.20825596	   -342.47851562	   -269.85870064	   -684.61800313	      0.00000000	      0.00000000	     -0.00000000	  -4243.90693984	      0.00000000	     -0.00000000	      0.00000000	      0.00000000	      0.00000000	      0.00000000	      0.00000000	      0.00000000	      0.00000000
      4.93000000	      0.00000000	     -0.00000000	      0.00000000	      0.00000000	      0.00000000	      0.00000000	      0.00000000	      0.00000000	      0.00000000	     -3.32121134	     46.34780884	   -273.21023560	   -250.50872304	  -1143.32622292	      0.00000000	      0.00000000	      0.00000000	   1830.50856979	      3.40134953	    -60.22531906	   -327.54403687	   -269.86759370	   -684.56044618	      0.00000000	      0.00000000	     -0.00000000	  -3970.15371056	      0.00000000	     -0.00000000	      0.00000000	      0.00000000	      0.00000000	      0.00000000	      0.00000000	      0.00000000	      0.00000000
      4.94000000	      0.00000000	     -0.00000000	      0.00000000	      0.00000000	      0.00000000	      0.00000000	      0.00000000	      0.00000000	      0.00000000	     -3.83605194	     43.20757675	   -249.94393921	   -247.02237013	  -1144.23732238	      0.00000000	      0.00000000	      0.00000000	   1474.06017902	      2.91720662	    -57.90842069	   -310.43612671	   -268.42970434	   -683.72956866	      0.00000000	      0.00000000	     -0.00000000	  -3764.27892309	      0.00000000	     -0.00000000	      0.00000000	      0.00000000	      0.00000000	      0.00000000	      0.00000000	      0.00000000	      0.00000000
